FILE "Mortal Kombat Trilogy (1997)(Midway)(US)(Track 01 of 29)[h quality paul_met][v1.1].bin" BINARY
  TRACK 01 MODE1/2352
    INDEX 01 00:00:00
FILE "Mortal Kombat Trilogy (1997)(Midway)(US)(Track 02 of 29)[h quality paul_met][v1.1].bin" BINARY
  TRACK 02 AUDIO
    INDEX 00 00:00:00
    INDEX 01 00:02:00
FILE "Mortal Kombat Trilogy (1997)(Midway)(US)(Track 03 of 29)[h quality paul_met][v1.1].bin" BINARY
  TRACK 03 AUDIO
    INDEX 00 00:00:00
    INDEX 01 00:02:00
FILE "Mortal Kombat Trilogy (1997)(Midway)(US)(Track 04 of 29)[h quality paul_met][v1.1].bin" BINARY
  TRACK 04 AUDIO
    INDEX 00 00:00:00
    INDEX 01 00:02:00
FILE "Mortal Kombat Trilogy (1997)(Midway)(US)(Track 05 of 29)[h quality paul_met][v1.1].bin" BINARY
  TRACK 05 AUDIO
    INDEX 00 00:00:00
    INDEX 01 00:02:00
FILE "Mortal Kombat Trilogy (1997)(Midway)(US)(Track 06 of 29)[h quality paul_met][v1.1].bin" BINARY
  TRACK 06 AUDIO
    INDEX 00 00:00:00
    INDEX 01 00:02:00
FILE "Mortal Kombat Trilogy (1997)(Midway)(US)(Track 07 of 29)[h quality paul_met][v1.1].bin" BINARY
  TRACK 07 AUDIO
    INDEX 00 00:00:00
    INDEX 01 00:02:00
FILE "Mortal Kombat Trilogy (1997)(Midway)(US)(Track 08 of 29)[h quality paul_met][v1.1].bin" BINARY
  TRACK 08 AUDIO
    INDEX 00 00:00:00
    INDEX 01 00:02:00
FILE "Mortal Kombat Trilogy (1997)(Midway)(US)(Track 09 of 29)[h quality paul_met][v1.1].bin" BINARY
  TRACK 09 AUDIO
    INDEX 00 00:00:00
    INDEX 01 00:02:00
FILE "Mortal Kombat Trilogy (1997)(Midway)(US)(Track 10 of 29)[h quality paul_met][v1.1].bin" BINARY
  TRACK 10 AUDIO
    INDEX 00 00:00:00
    INDEX 01 00:02:00
FILE "Mortal Kombat Trilogy (1997)(Midway)(US)(Track 11 of 29)[h quality paul_met][v1.1].bin" BINARY
  TRACK 11 AUDIO
    INDEX 00 00:00:00
    INDEX 01 00:02:00
FILE "Mortal Kombat Trilogy (1997)(Midway)(US)(Track 12 of 29)[h quality paul_met][v1.1].bin" BINARY
  TRACK 12 AUDIO
    INDEX 00 00:00:00
    INDEX 01 00:02:00
FILE "Mortal Kombat Trilogy (1997)(Midway)(US)(Track 13 of 29)[h quality paul_met][v1.1].bin" BINARY
  TRACK 13 AUDIO
    INDEX 00 00:00:00
    INDEX 01 00:02:00
FILE "Mortal Kombat Trilogy (1997)(Midway)(US)(Track 14 of 29)[h quality paul_met][v1.1].bin" BINARY
  TRACK 14 AUDIO
    INDEX 00 00:00:00
    INDEX 01 00:02:00
FILE "Mortal Kombat Trilogy (1997)(Midway)(US)(Track 15 of 29)[h quality paul_met][v1.1].bin" BINARY
  TRACK 15 AUDIO
    INDEX 00 00:00:00
    INDEX 01 00:02:00
FILE "Mortal Kombat Trilogy (1997)(Midway)(US)(Track 16 of 29)[h quality paul_met][v1.1].bin" BINARY
  TRACK 16 AUDIO
    INDEX 00 00:00:00
    INDEX 01 00:02:00
FILE "Mortal Kombat Trilogy (1997)(Midway)(US)(Track 17 of 29)[h quality paul_met][v1.1].bin" BINARY
  TRACK 17 AUDIO
    INDEX 00 00:00:00
    INDEX 01 00:02:00
FILE "Mortal Kombat Trilogy (1997)(Midway)(US)(Track 18 of 29)[h quality paul_met][v1.1].bin" BINARY
  TRACK 18 AUDIO
    INDEX 00 00:00:00
    INDEX 01 00:02:00
FILE "Mortal Kombat Trilogy (1997)(Midway)(US)(Track 19 of 29)[h quality paul_met][v1.1].bin" BINARY
  TRACK 19 AUDIO
    INDEX 00 00:00:00
    INDEX 01 00:02:00
FILE "Mortal Kombat Trilogy (1997)(Midway)(US)(Track 20 of 29)[h quality paul_met][v1.1].bin" BINARY
  TRACK 20 AUDIO
    INDEX 00 00:00:00
    INDEX 01 00:02:00
FILE "Mortal Kombat Trilogy (1997)(Midway)(US)(Track 21 of 29)[h quality paul_met][v1.1].bin" BINARY
  TRACK 21 AUDIO
    INDEX 00 00:00:00
    INDEX 01 00:02:00
FILE "Mortal Kombat Trilogy (1997)(Midway)(US)(Track 22 of 29)[h quality paul_met][v1.1].bin" BINARY
  TRACK 22 AUDIO
    INDEX 00 00:00:00
    INDEX 01 00:02:00
FILE "Mortal Kombat Trilogy (1997)(Midway)(US)(Track 23 of 29)[h quality paul_met][v1.1].bin" BINARY
  TRACK 23 AUDIO
    INDEX 00 00:00:00
    INDEX 01 00:02:00
FILE "Mortal Kombat Trilogy (1997)(Midway)(US)(Track 24 of 29)[h quality paul_met][v1.1].bin" BINARY
  TRACK 24 AUDIO
    INDEX 00 00:00:00
    INDEX 01 00:02:00
FILE "Mortal Kombat Trilogy (1997)(Midway)(US)(Track 25 of 29)[h quality paul_met][v1.1].bin" BINARY
  TRACK 25 AUDIO
    INDEX 00 00:00:00
    INDEX 01 00:02:00
FILE "Mortal Kombat Trilogy (1997)(Midway)(US)(Track 26 of 29)[h quality paul_met][v1.1].bin" BINARY
  TRACK 26 AUDIO
    INDEX 00 00:00:00
    INDEX 01 00:02:00
FILE "Mortal Kombat Trilogy (1997)(Midway)(US)(Track 27 of 29)[h quality paul_met][v1.1].bin" BINARY
  TRACK 27 AUDIO
    INDEX 00 00:00:00
    INDEX 01 00:02:00
FILE "Mortal Kombat Trilogy (1997)(Midway)(US)(Track 28 of 29)[h quality paul_met][v1.1].bin" BINARY
  TRACK 28 AUDIO
    INDEX 00 00:00:00
    INDEX 01 00:02:00
FILE "Mortal Kombat Trilogy (1997)(Midway)(US)(Track 29 of 29)[h quality paul_met][v1.1].bin" BINARY
  TRACK 29 AUDIO
    INDEX 00 00:00:00
    INDEX 01 00:02:00
